{"title":"Bad Teacher 2011 TS V2 XViD DTRG","uid":6529526,"size":1558406963,"categoryP":"video","categoryS":"movies","magnet":"?xt=urn:btih:b36a4874b3c112f1ede336e66543756a56b09861&amp;dn=Bad+Teacher+2011+TS+V2+XViD+DTRG&amp;tr=udp%3A%2F%2Ftracker.openbittorrent.com%3A80&amp;tr=udp%3A%2F%2Fopen.demonii.com%3A1337&amp;tr=udp%3A%2F%2Ftracker.coppersurfer.tk%3A6969&amp;tr=udp%3A%2F%2Fexodus.desync.com%3A6969","seeders":1,"leechers":0,"uploader":"SAFCukO09","files":4,"time":1310290706,"description":"Format : AVI\nFormat/Info : Audio Video Interleave\nFile size : 1.44 GiB\nDuration : 1h 27mn\nOverall bit rate : 2 360 Kbps\nWriting application : VirtualDubMod 1.5.10.3 | www.virtualdub-fr.org || (build 2550/release)\nWriting library : VirtualDub build 32842/release\n\nVideo\nID : 0\nFormat : MPEG-4 Visual\nFormat profile : Advanced Simple@L5\nFormat settings, BVOP : 2\nFormat settings, QPel : No\nFormat settings, GMC : No warppoints\nFormat settings, Matrix : Default (H.263)\nMuxing mode : Packed bitstream\nCodec ID : XVID\nCodec ID/Hint : XviD\nDuration : 1h 27mn\nBit rate : 2 223 Kbps\nWidth : 720 pixels\nHeight : 320 pixels\nDisplay aspect ratio : 2.25:1\nFrame rate : 25.000 fps\nColor space : YUV\nChroma subsampling : 4:2:0\nBit depth : 8 bits\nScan type : Progressive\nCompression mode : Lossy\nBits/(Pixel*Frame) : 0.386\nStream size : 1.36 GiB (94%)\nWriting library : XviD 64\n\nAudio\nID : 1\nFormat : MPEG Audio\nFormat version : Version 1\nFormat profile : Layer 3\nCodec ID : 55\nCodec ID/Hint : MP3\nDuration : 1h 27mn\nBit rate mode : Constant\nBit rate : 128 Kbps\nChannel(s) : 2 channels\nSampling rate : 44.1 KHz\nCompression mode : Lossy\nStream size : 80.1 MiB (5%)\nAlignment : Split accross interleaves\nInterleave, duration : 40 ms (1.00 video frame)\nInterleave, preload duration : 500 ms\n\n\n\n\n\n &lt;a href=&quot;\nhttp://www.imdb.com/title/tt1284575/&quot; rel=&quot;nofollow&quot; target=&quot;_NEW&quot;&gt;\nhttp://www.imdb.com/title/tt1284575/&lt;/a&gt;\n\n\n\n\n\n\n\n\nUsers: (5,569 votes) 62 reviews | Critics: 140 reviews Metascore: 47/100 (based on 38 reviews from Metacritic.com)\n\n\nA comedy centered around a foul-mouthed, junior high teacher who, after being dumped by her sugar daddy, begins to woo a colleague -- a move that pits her against a well-loved teacher.\n\nDirector: Jake Kasdan\nWriters: Gene Stupnitsky, Lee Eisenberg\nStars: Cameron Diaz, Jason Segel and Justin Timberlake\n\n\n\n\n\n\n\n\n\n\n\n\n\n\n\n\n\n\nSource Used\n\n\n\nVIDEO: ............. Russian Proper .............Thanks\n\nAUDIO: ............. IMAGiNE ......................Thanks\n\n\nWell here goes with v2 ..Is it better i dont know that pulse / flicker has gone but this one has a glare/brightness issue which ive tried toning down.Chenged the rgb colours as well\n\nSo\n\n\n\nEnjoy\n\n\n\n\n\nGreetz to IMAGiNE,Flawl3ss,DiLLoN,BDK,NOiR,TOXiC,THC,Ez,Rx,Boobyblue,TaRiQ786,BHRG","torrent":{"xt":"urn:btih:b36a4874b3c112f1ede336e66543756a56b09861","amp;dn":"Bad+Teacher+2011+TS+V2+XViD+DTRG","amp;tr":["udp%3A%2F%2Ftracker.openbittorrent.com%3A80","udp%3A%2F%2Fopen.demonii.com%3A1337","udp%3A%2F%2Ftracker.coppersurfer.tk%3A6969","udp%3A%2F%2Fexodus.desync.com%3A6969"],"infoHash":"b36a4874b3c112f1ede336e66543756a56b09861","infoHashBuffer":{"type":"Buffer","data":[179,106,72,116,179,193,18,241,237,227,54,230,101,67,117,106,86,176,152,97]},"announce":[],"urlList":[]}}